<svg xmlns="http://www.w3.org/2000/svg" width="111" height="190.567" viewBox="0 0 111 190.567">
  <g id="simbolo_azul" transform="translate(-80.03 -1313)">
    <path id="Caminho_18" data-name="Caminho 18" d="M145.154,187.152a57.3,57.3,0,0,0,3.943,20.029,55.23,55.23,0,0,0,6.1,11.17l3.771,4.857A62.435,62.435,0,0,0,167,230.68l2.041,1.482a60.125,60.125,0,0,0,6.353,3.862c.852.451,1.537.685,2.411,1.117,10.328,5.051,24.1,6.187,35.147,3.546a46.528,46.528,0,0,0,10.314-3.429l3.348-1.586c.482-.27.577-.379,1.113-.644l4.254-2.618c.734-.491,1.257-.9,1.947-1.4l4.709-3.925a38.794,38.794,0,0,0,3.289-3.4l2.352-2.762c7.029-9.1,11.873-21.1,11.873-32.7V88.845c0-.406-.122-.527-.527-.527H219.147v76.457c2.086,1.4,5.087,5.772,6.281,8.16a27.806,27.806,0,0,1,2.113,18.925,28.337,28.337,0,0,1-2.929,7.286l-3.181,4.393L218.4,206.5c-.32.27-.545.419-.9.7s-.694.541-1,.757c-7.958,5.619-19.655,6.646-28.343,1.915l-4.907-3.2a27.667,27.667,0,0,1-4.506-38.039,18.822,18.822,0,0,1,3.4-3.65V51.5H145.15Zm0,0" transform="translate(-65.12 1261.5)" fill="#226ed8" fill-rule="evenodd"/>
    <path id="Caminho_19" data-name="Caminho 19" d="M241,332.078c0,4.447.261,5.754,2.92,9.233a12.676,12.676,0,0,0,4.182,3.217l2.05.771a12.506,12.506,0,1,0-5.587-20.93,11.987,11.987,0,0,0-3.564,7.71Zm0,0" transform="translate(-117.78 1113.578)" fill="#226ed8" fill-rule="evenodd"/>
  </g>
</svg>
